<?xml version="1.0" encoding="iso-8859-1"?>
<!-- Generator: Adobe Illustrator 19.0.0, SVG Export Plug-In . SVG Version: 6.00 Build 0)  -->
<svg version="1.1" id="Capa_1" xmlns="http://www.w3.org/2000/svg" xmlns:xlink="http://www.w3.org/1999/xlink" x="0px" y="0px"
	 viewBox="0 0 347.2 347.2" style="enable-background:new 0 0 347.2 347.2;" xml:space="preserve">
<g>
	<g>
		<g>
			<path d="M296.4,50.8C262.4,16.8,218,0,173.6,0C129.2,0,84.8,16.8,50.8,50.8S0,129.2,0,173.6c0,44.4,16.8,88.8,50.8,122.8
				s78.4,50.8,122.8,50.8c44.4,0,88.8-16.8,122.8-50.8s50.8-78.4,50.8-122.8C347.2,129.2,330.4,84.8,296.4,50.8z M281.6,281.6
				c-30,30-68.8,44.8-108,44.8s-78-14.8-108-44.8s-44.8-68.8-44.8-108s15.2-78,44.8-108c30-30,68.8-44.8,108-44.8s78,15.2,108,44.8
				c30,30,44.8,68.8,44.8,108S311.2,251.6,281.6,281.6z"/>
			<path d="M275.2,160.4c-0.8-0.8-1.2-1.6-2-2.4c-1.2-0.8-2-2-3.2-2.4l-60.8-42l-61.6-42.4c-4.8-3.2-10.8-4.4-16-3.6
				c-5.6,0.8-10.4,4-14,8.8c-1.2,2-2.4,4-2.8,6c-0.4,1.6-0.8,3.2-0.8,4.8c0,0.4,0,1.2,0,1.6v84.8v84.8c0,6,2.4,11.2,6.4,15.2
				s9.2,6.4,15.2,6.4c2.4,0,4.8-0.4,7.2-1.2c2-0.8,4.4-2,6-3.2l60.4-42l60.4-42c0.4-0.4,1.2-0.8,1.6-1.2c4.4-3.2,7.2-8,8-13.2
				s0-10.4-2.8-15.2C276,161.6,275.6,161.2,275.2,160.4z M258.4,174l-61.2,42.4l-60.8,42c-0.4,0-0.4,0.4-0.8,0.4c0,0,0,0-0.4,0
				c0,0-0.4,0-0.4-0.4l-0.4-0.4v-84.4v-84c0-0.4,0-0.4,0-0.8l0.4-0.4h0.4l61.2,42.4l61.2,42.4v0.4C258.8,174,258.8,174,258.4,174z"
				/>
		</g>
	</g>
</g>
<g>
</g>
<g>
</g>
<g>
</g>
<g>
</g>
<g>
</g>
<g>
</g>
<g>
</g>
<g>
</g>
<g>
</g>
<g>
</g>
<g>
</g>
<g>
</g>
<g>
</g>
<g>
</g>
<g>
</g>
</svg>
